<svg xmlns="http://www.w3.org/2000/svg" xmlns:xlink="http://www.w3.org/1999/xlink" width="115.523" height="93.669" viewBox="0 0 115.523 93.669">
  <defs>
    <clipPath id="clip-path">
      <path id="Path_3" data-name="Path 3" d="M0,62.028H115.523V-31.641H0Z" transform="translate(0 31.641)" fill="none"/>
    </clipPath>
  </defs>
  <g id="Group_5" data-name="Group 5" clip-path="url(#clip-path)">
    <g id="Group_4" data-name="Group 4" transform="translate(0.001 0.001)">
      <path id="Path_2" data-name="Path 2" d="M29.864,0Q24.487,3.295,16.507,8.487A85.029,85.029,0,0,0,1.418,21.125a72.613,72.613,0,0,0-11.8,16.534,43.488,43.488,0,0,0-4.855,20.515q0,15.928,6.418,25.711T12.52,93.669q9.534,0,15-6.332t5.465-13.618q0-10.231-6.158-15.524T9.917,52.9H1.59a49.664,49.664,0,0,1,3.644-14.7,40.7,40.7,0,0,1,7.457-10.891,60.753,60.753,0,0,1,10.234-8.9q5.031-3.37,13.183-8.04ZM94.046,0Q88.664,3.295,80.688,8.487A85.151,85.151,0,0,0,65.6,21.125,72.693,72.693,0,0,0,53.8,37.659a43.49,43.49,0,0,0-4.858,20.515q0,15.928,6.418,25.711T76.7,93.669q9.538,0,15.006-6.332t5.462-13.618q0-10.231-6.158-15.524T74.1,52.9H65.771A50.436,50.436,0,0,1,69.326,38.3a40.037,40.037,0,0,1,7.546-10.977,60.753,60.753,0,0,1,10.234-8.9q5.027-3.37,13.183-8.04Z" transform="translate(15.234)" fill="#2b2e34"/>
    </g>
  </g>
</svg>
