<svg xmlns="http://www.w3.org/2000/svg" width="21.784" height="21.784" viewBox="0 0 21.784 21.784">
  <path id="Icon_awesome-linkedin" data-name="Icon awesome-linkedin" d="M20.228,2.25H1.551A1.563,1.563,0,0,0,0,3.821V22.463a1.563,1.563,0,0,0,1.551,1.571H20.228a1.567,1.567,0,0,0,1.556-1.571V3.821A1.567,1.567,0,0,0,20.228,2.25ZM6.584,20.922H3.355v-10.4H6.589v10.4ZM4.969,9.106A1.872,1.872,0,1,1,6.841,7.234,1.873,1.873,0,0,1,4.969,9.106ZM18.686,20.922H15.458V15.865c0-1.206-.024-2.757-1.678-2.757-1.682,0-1.94,1.313-1.94,2.669v5.144H8.611v-10.4h3.1v1.42h.044a3.4,3.4,0,0,1,3.058-1.678c3.268,0,3.875,2.154,3.875,4.955Z" transform="translate(0 -2.25)" fill="#fff"/>
</svg>
