<svg xmlns="http://www.w3.org/2000/svg" width="21.453" height="21.453" viewBox="0 0 21.453 21.453">
  <path id="Icon_awesome-facebook-square" data-name="Icon awesome-facebook-square" d="M19.155,2.25H2.3A2.3,2.3,0,0,0,0,4.549V21.4a2.3,2.3,0,0,0,2.3,2.3H8.871V16.41H5.854V12.977H8.871V10.36c0-2.976,1.772-4.62,4.486-4.62a18.277,18.277,0,0,1,2.659.232V8.893h-1.5a1.717,1.717,0,0,0-1.936,1.855v2.229h3.294l-.527,3.433H12.582V23.7h6.572a2.3,2.3,0,0,0,2.3-2.3V4.549a2.3,2.3,0,0,0-2.3-2.3Z" transform="translate(0 -2.25)" fill="#fff"/>
</svg>
