<svg xmlns="http://www.w3.org/2000/svg" width="22.728" height="22.723" viewBox="0 0 22.728 22.723">
  <path id="Icon_awesome-instagram" data-name="Icon awesome-instagram" d="M11.361,7.773A5.826,5.826,0,1,0,17.187,13.6,5.817,5.817,0,0,0,11.361,7.773Zm0,9.614A3.788,3.788,0,1,1,15.149,13.6a3.795,3.795,0,0,1-3.788,3.788Zm7.423-9.852a1.359,1.359,0,1,1-1.359-1.359A1.356,1.356,0,0,1,18.785,7.535Zm3.859,1.379a6.725,6.725,0,0,0-1.836-4.761,6.769,6.769,0,0,0-4.761-1.836c-1.876-.106-7.5-.106-9.375,0A6.759,6.759,0,0,0,1.91,4.148,6.747,6.747,0,0,0,.075,8.909c-.106,1.876-.106,7.5,0,9.375A6.725,6.725,0,0,0,1.91,23.046a6.778,6.778,0,0,0,4.761,1.836c1.876.106,7.5.106,9.375,0a6.725,6.725,0,0,0,4.761-1.836,6.769,6.769,0,0,0,1.836-4.761c.106-1.876.106-7.494,0-9.37ZM20.219,20.3a3.835,3.835,0,0,1-2.16,2.16c-1.5.593-5.045.456-6.7.456s-5.207.132-6.7-.456A3.835,3.835,0,0,1,2.5,20.3c-.593-1.5-.456-5.045-.456-6.7S1.915,8.392,2.5,6.9a3.835,3.835,0,0,1,2.16-2.16c1.5-.593,5.045-.456,6.7-.456s5.207-.132,6.7.456a3.835,3.835,0,0,1,2.16,2.16c.593,1.5.456,5.045.456,6.7S20.813,18.807,20.219,20.3Z" transform="translate(0.005 -2.238)" fill="#fff"/>
</svg>
