<svg id="Group_56" data-name="Group 56" xmlns="http://www.w3.org/2000/svg" xmlns:xlink="http://www.w3.org/1999/xlink" width="184.279" height="96.197" viewBox="0 0 184.279 96.197">
  <defs>
    <clipPath id="clip-path">
      <rect id="Rectangle_33" data-name="Rectangle 33" width="184.279" height="96.197" fill="none"/>
    </clipPath>
  </defs>
  <g id="Group_55" data-name="Group 55" clip-path="url(#clip-path)">
    <path id="Path_28" data-name="Path 28" d="M87.328,5.017c15.427-4.483,31.9-6.872,47.556-3.259s30.36,14.07,35.884,29.156S170.4,65.331,155.9,72.255c-23.023,11-52.36-11.663-74.919.257-6.454,3.41-11.243,9.226-16.942,13.81C41.827,104.179-13.321,98.943,2.962,61.353,13.334,37.407,64.214,11.733,87.328,5.017" transform="translate(0 0)" fill="#fff"/>
    <path id="Path_29" data-name="Path 29" d="M52.309,45.871a5.015,5.015,0,0,0,.2,1.578,1.945,1.945,0,0,0,.623.927,2.6,2.6,0,0,0,1.043.478,9.4,9.4,0,0,0,1.463.2.3.3,0,0,1,.289.159.746.746,0,0,1,.087.362.539.539,0,0,1-.1.319.347.347,0,0,1-.3.144,26.424,26.424,0,0,1-2.68-.115,20.845,20.845,0,0,0-2.158-.115,20.153,20.153,0,0,0-2.173.115,19.376,19.376,0,0,1-2.086.115.284.284,0,0,1-.26-.144.733.733,0,0,1-.1-.319.584.584,0,0,1,.073-.333.367.367,0,0,1,.289-.188,8.577,8.577,0,0,0,1.333-.231,1.674,1.674,0,0,0,.812-.464,1.7,1.7,0,0,0,.39-.84,7.532,7.532,0,0,0,.1-1.391v-10.8q0-.637-.03-1.275a4.911,4.911,0,0,0-.188-1.173,2.636,2.636,0,0,0-.464-.912,1.419,1.419,0,0,0-.826-.493c-.213-.039-.434-.082-.666-.131a5.9,5.9,0,0,0-.666-.1.284.284,0,0,1-.26-.144.626.626,0,0,1,0-.637.283.283,0,0,1,.26-.145,16.206,16.206,0,0,1,1.767.087,16.632,16.632,0,0,0,1.825.087q1.738-.029,2.882-.1t2.186-.073a10.532,10.532,0,0,1,2.274.246,5.5,5.5,0,0,1,1.97.84,4.454,4.454,0,0,1,1.376,1.55,4.843,4.843,0,0,1,.521,2.346,5.2,5.2,0,0,1-.637,2.693,4.956,4.956,0,0,1-1.752,1.738,8.27,8.27,0,0,1-2.622.97,19.666,19.666,0,0,1-3.244.362.782.782,0,0,0-.42.087q-.13.088-.13.493Zm0-6.286c0,.154.043.251.13.289a1.321,1.321,0,0,0,.479.058,10.94,10.94,0,0,0,2.375-.217,3.45,3.45,0,0,0,1.535-.724,2.78,2.78,0,0,0,.825-1.317,7.1,7.1,0,0,0,.247-2.028,4.857,4.857,0,0,0-.84-3.23,3.741,3.741,0,0,0-2.9-.941,2.6,2.6,0,0,0-1.492.289,1.49,1.49,0,0,0-.362,1.188Z" transform="translate(-15.822 -10.435)"/>
    <path id="Path_30" data-name="Path 30" d="M80.312,39.894a7.324,7.324,0,0,0-.159.782,6.443,6.443,0,0,0-.073.985q0,.551.03,1.144t.029.913c0,.058-.039.106-.115.145a.768.768,0,0,1-.261.072.57.57,0,0,1-.26-.029.219.219,0,0,1-.145-.131,5.116,5.116,0,0,0-1.043-2.362A2.932,2.932,0,0,0,76,40.59a2.807,2.807,0,0,0-1.767.536,1.717,1.717,0,0,0-.7,1.433,1.328,1.328,0,0,0,.58,1.159,6.664,6.664,0,0,0,1.535.753q.405.146.97.362t.913.362q.753.348,1.4.725a4.947,4.947,0,0,1,1.13.883,3.947,3.947,0,0,1,.753,1.144,3.7,3.7,0,0,1,.275,1.477,3.4,3.4,0,0,1-.464,1.839,3.67,3.67,0,0,1-1.188,1.188,5.217,5.217,0,0,1-1.651.653,8.568,8.568,0,0,1-1.825.2,9.23,9.23,0,0,1-1.68-.173,6.994,6.994,0,0,1-1.622-.493.418.418,0,0,0-.362.057.606.606,0,0,0-.247.435c0,.057-.043.1-.13.115a1.254,1.254,0,0,1-.275.029.66.66,0,0,1-.232-.043c-.077-.029-.115-.073-.115-.13a4.678,4.678,0,0,1,.058-.637,5.435,5.435,0,0,0,.057-.754,7.526,7.526,0,0,0-.043-.767q-.043-.42-.087-.826t-.073-.725c-.019-.212-.029-.366-.029-.464a.185.185,0,0,1,.116-.173.742.742,0,0,1,.26-.073.665.665,0,0,1,.275.029.222.222,0,0,1,.159.159,6.883,6.883,0,0,0,.521,1.478,3.593,3.593,0,0,0,.8,1.072,3.075,3.075,0,0,0,1.159.652,5.415,5.415,0,0,0,1.637.217,2.457,2.457,0,0,0,1.695-.579,2.058,2.058,0,0,0,.651-1.622,1.8,1.8,0,0,0-.651-1.464,7.166,7.166,0,0,0-1.521-.941q-.406-.174-.825-.347t-.854-.348q-.638-.261-1.26-.536a4.474,4.474,0,0,1-1.1-.681,3,3,0,0,1-.767-1.014,3.486,3.486,0,0,1-.29-1.506,3.279,3.279,0,0,1,.449-1.767,3.628,3.628,0,0,1,1.159-1.173,5.129,5.129,0,0,1,1.578-.653,7.538,7.538,0,0,1,1.709-.2,4.971,4.971,0,0,1,1.434.188,5.476,5.476,0,0,1,1.377.681.375.375,0,0,0,.3-.014q.188-.073.3-.478a.2.2,0,0,1,.173-.145.98.98,0,0,1,.29-.014.763.763,0,0,1,.261.072c.077.039.106.087.087.145" transform="translate(-24.503 -13.582)"/>
    <path id="Path_31" data-name="Path 31" d="M95.412,49.538c.058.116.131.165.218.145a.263.263,0,0,0,.188-.145q.9-1.767,1.578-3.4t1.2-3.143a2.347,2.347,0,0,0,.2-.87.823.823,0,0,0-.159-.521,1.111,1.111,0,0,0-.406-.319,2.423,2.423,0,0,0-.521-.174c-.184-.038-.343-.067-.478-.087a.325.325,0,0,1-.247-.159.56.56,0,0,1-.072-.275.424.424,0,0,1,.087-.261.275.275,0,0,1,.231-.116,9.075,9.075,0,0,1,1.13.073,9.41,9.41,0,0,0,1.158.072,13.258,13.258,0,0,0,1.362-.072c.464-.049.83-.073,1.1-.073a.238.238,0,0,1,.217.116.534.534,0,0,1,.073.29.554.554,0,0,1-.073.275.234.234,0,0,1-.217.131,2.312,2.312,0,0,0-.724.2,1.366,1.366,0,0,0-.492.42,4.418,4.418,0,0,0-.405.694q-.2.42-.464,1-.841,1.825-1.738,3.9t-1.912,4.244q-.927,2.027-1.9,3.983t-1.868,3.665q-.232.435-.58,1a6.56,6.56,0,0,1-.826,1.072A4.658,4.658,0,0,1,90,62.052a2.635,2.635,0,0,1-1.333.348,2.458,2.458,0,0,1-1.274-.361,1.262,1.262,0,0,1-.609-1.174,1.542,1.542,0,0,1,.376-1.043,1.241,1.241,0,0,1,.985-.434.692.692,0,0,1,.405.1,3.083,3.083,0,0,1,.275.217,2.291,2.291,0,0,0,.29.218.719.719,0,0,0,.391.1,1.121,1.121,0,0,0,.725-.405,8.54,8.54,0,0,0,.854-1.028q.45-.624.9-1.39t.825-1.493q.377-.724.653-1.3t.391-.84a1.623,1.623,0,0,0,.145-.609,1.158,1.158,0,0,0-.116-.521q-.927-1.911-2.057-4.258t-2.144-4.692q-.289-.7-.521-1.13a3.227,3.227,0,0,0-.478-.7,1.819,1.819,0,0,0-.565-.405,3.452,3.452,0,0,0-.811-.231.307.307,0,0,1-.217-.159.561.561,0,0,1-.073-.275.42.42,0,0,1,.087-.261.274.274,0,0,1,.232-.116q.9,0,1.723.073t1.666.072q.839,0,1.651-.072t1.651-.073a.239.239,0,0,1,.217.116.484.484,0,0,1,.073.261.561.561,0,0,1-.073.275.308.308,0,0,1-.217.159,3.493,3.493,0,0,0-1.3.348.716.716,0,0,0-.377.637,3.2,3.2,0,0,0,.261,1.216q.608,1.623,1.333,3.244t1.477,3.071" transform="translate(-29.87 -13.841)"/>
    <path id="Path_32" data-name="Path 32" d="M114.6,45.92a8.28,8.28,0,0,0,.261,2.1,5.456,5.456,0,0,0,.8,1.767A3.877,3.877,0,0,0,117.035,51a4.243,4.243,0,0,0,2.028.449,12.235,12.235,0,0,0,1.984-.159,3.231,3.231,0,0,0,1.636-.739.248.248,0,0,1,.261-.072.69.69,0,0,1,.26.145.517.517,0,0,1,.159.247.277.277,0,0,1-.043.26,4.781,4.781,0,0,1-2.23,1.723,9.088,9.088,0,0,1-3.013.449,8.027,8.027,0,0,1-2.317-.348,5.686,5.686,0,0,1-2.1-1.159,5.822,5.822,0,0,1-1.52-2.158,8.471,8.471,0,0,1-.58-3.346,7.5,7.5,0,0,1,.478-2.68,6.079,6.079,0,0,1,1.391-2.172A6.623,6.623,0,0,1,115.674,40a8.191,8.191,0,0,1,3.07-.536,6.646,6.646,0,0,1,1.637.2,4.966,4.966,0,0,1,1.42.594,3.212,3.212,0,0,1,1,.971,2.339,2.339,0,0,1,.376,1.3,1.615,1.615,0,0,1-.348.985,1.285,1.285,0,0,1-1.1.464,1.529,1.529,0,0,1-1-.319,1.125,1.125,0,0,1-.392-.927,1,1,0,0,1,.218-.667.788.788,0,0,0,.217-.492q0-.521-.7-.8a4.147,4.147,0,0,0-1.535-.275,3.407,3.407,0,0,0-1.839.464,3.8,3.8,0,0,0-1.216,1.231,5.294,5.294,0,0,0-.681,1.738,9.678,9.678,0,0,0-.2,1.984" transform="translate(-38.4 -13.582)"/>
    <path id="Path_33" data-name="Path 33" d="M135.742,38.084q.058.146.145,0a5.252,5.252,0,0,1,1.868-1.535,4.985,4.985,0,0,1,2.216-.55,4.3,4.3,0,0,1,3.548,1.347,5.43,5.43,0,0,1,1.087,3.519v5.359q0,.754.043,1.217a1.8,1.8,0,0,0,.2.738.939.939,0,0,0,.506.406,6.063,6.063,0,0,0,.956.246.36.36,0,0,1,.261.174.567.567,0,0,1,.087.29.5.5,0,0,1-.087.275.27.27,0,0,1-.232.13,11.267,11.267,0,0,1-1.231-.1,13.91,13.91,0,0,0-1.695-.1,16.253,16.253,0,0,0-1.825.1,14.172,14.172,0,0,1-1.535.1.292.292,0,0,1-.26-.13.487.487,0,0,1-.087-.275.533.533,0,0,1,.087-.3.391.391,0,0,1,.289-.159,4.372,4.372,0,0,0,1.028-.232.978.978,0,0,0,.521-.434,1.948,1.948,0,0,0,.2-.753q.044-.463.043-1.188V41.849a10.446,10.446,0,0,0-.1-1.448,4.691,4.691,0,0,0-.376-1.318,2.453,2.453,0,0,0-.8-.97,2.323,2.323,0,0,0-1.39-.376,3.314,3.314,0,0,0-1.578.347,3.629,3.629,0,0,0-1.072.84,3.434,3.434,0,0,0-.622,1.043,2.825,2.825,0,0,0-.2.956V46.05c0,.521.01.952.029,1.289a2.047,2.047,0,0,0,.174.8,1.007,1.007,0,0,0,.449.449,2.834,2.834,0,0,0,.854.246.378.378,0,0,1,.289.174.556.556,0,0,1,.087.29.487.487,0,0,1-.087.275.293.293,0,0,1-.26.13,10.483,10.483,0,0,1-1.173-.1,13.2,13.2,0,0,0-1.665-.1,14.773,14.773,0,0,0-1.768.1,12.829,12.829,0,0,1-1.506.1.3.3,0,0,1-.261-.13.491.491,0,0,1-.087-.275.538.538,0,0,1,.087-.3.394.394,0,0,1,.29-.159,4.364,4.364,0,0,0,1.028-.232,1.052,1.052,0,0,0,.536-.434,1.774,1.774,0,0,0,.217-.753q.044-.463.044-1.188V34.84q0-1.245-.058-1.984a2.785,2.785,0,0,0-.291-1.144,1.172,1.172,0,0,0-.694-.55,7,7,0,0,0-1.275-.231.232.232,0,0,1-.218-.145.824.824,0,0,1-.086-.289.521.521,0,0,1,.057-.291.255.255,0,0,1,.247-.144q.84-.058,2.057-.174a11.965,11.965,0,0,0,2.289-.435q.405-.115.536.043a.7.7,0,0,1,.159.333Z" transform="translate(-44.883 -10.121)"/>
    <path id="Path_34" data-name="Path 34" d="M171.251,46.007a9.161,9.161,0,0,1-.492,3.128,6.215,6.215,0,0,1-1.405,2.288,5.951,5.951,0,0,1-2.187,1.405,8.029,8.029,0,0,1-2.838.478,6.924,6.924,0,0,1-2.521-.449,5.434,5.434,0,0,1-2-1.332,6.354,6.354,0,0,1-1.332-2.231,9.227,9.227,0,0,1-.493-3.172,7.219,7.219,0,0,1,.493-2.708,6.043,6.043,0,0,1,1.376-2.1,6.3,6.3,0,0,1,2.129-1.361,7.335,7.335,0,0,1,2.723-.493,7.668,7.668,0,0,1,2.621.434,5.852,5.852,0,0,1,2.072,1.26,5.751,5.751,0,0,1,1.361,2.041,7.452,7.452,0,0,1,.492,2.811m-3.042.318a15.61,15.61,0,0,0-.145-2.144,6.536,6.536,0,0,0-.522-1.854,3.337,3.337,0,0,0-1.042-1.3,2.8,2.8,0,0,0-1.71-.492,3.288,3.288,0,0,0-1.883.492,3.448,3.448,0,0,0-1.144,1.318,6.1,6.1,0,0,0-.58,1.868,14.38,14.38,0,0,0-.159,2.173,14.657,14.657,0,0,0,.145,2.028,6.279,6.279,0,0,0,.55,1.883,3.846,3.846,0,0,0,1.116,1.39,2.864,2.864,0,0,0,1.81.551,2.971,2.971,0,0,0,1.826-.521,3.535,3.535,0,0,0,1.086-1.361,6.325,6.325,0,0,0,.521-1.9,17.315,17.315,0,0,0,.13-2.129" transform="translate(-54.38 -13.582)"/>
    <path id="Path_35" data-name="Path 35" d="M183.7,34.84q0-1.245-.058-1.984a2.793,2.793,0,0,0-.289-1.145,1.177,1.177,0,0,0-.71-.55,7.357,7.357,0,0,0-1.318-.232.23.23,0,0,1-.217-.145.828.828,0,0,1-.087-.289.521.521,0,0,1,.058-.29.253.253,0,0,1,.246-.145q.87-.058,2.1-.174a11.992,11.992,0,0,0,2.3-.435q.405-.115.535.044a.7.7,0,0,1,.159.332V46.05q0,.724.029,1.216a1.787,1.787,0,0,0,.218.811,1.207,1.207,0,0,0,.609.492,4.515,4.515,0,0,0,1.173.261.373.373,0,0,1,.262.159.542.542,0,0,1,.086.3.5.5,0,0,1-.086.275.3.3,0,0,1-.262.13,13.789,13.789,0,0,1-1.564-.1,14.985,14.985,0,0,0-1.738-.1,16.272,16.272,0,0,0-1.825.1,16.426,16.426,0,0,1-1.824.1.266.266,0,0,1-.232-.13.487.487,0,0,1-.087-.275.533.533,0,0,1,.087-.3.37.37,0,0,1,.26-.159,5.137,5.137,0,0,0,1.26-.261,1.328,1.328,0,0,0,.652-.477,1.506,1.506,0,0,0,.232-.753q.029-.45.029-1.116Z" transform="translate(-62.307 -10.121)"/>
    <path id="Path_36" data-name="Path 36" d="M208.928,46.007a9.161,9.161,0,0,1-.492,3.128,6.215,6.215,0,0,1-1.405,2.288,5.95,5.95,0,0,1-2.187,1.405,8.029,8.029,0,0,1-2.838.478,6.924,6.924,0,0,1-2.521-.449,5.434,5.434,0,0,1-2-1.332,6.354,6.354,0,0,1-1.332-2.231,9.228,9.228,0,0,1-.493-3.172,7.219,7.219,0,0,1,.493-2.708,6.043,6.043,0,0,1,1.376-2.1,6.3,6.3,0,0,1,2.129-1.361,7.335,7.335,0,0,1,2.723-.493,7.668,7.668,0,0,1,2.621.434,5.852,5.852,0,0,1,2.072,1.26,5.751,5.751,0,0,1,1.361,2.041,7.452,7.452,0,0,1,.492,2.811m-3.042.318a15.608,15.608,0,0,0-.145-2.144,6.535,6.535,0,0,0-.522-1.854,3.337,3.337,0,0,0-1.042-1.3,2.805,2.805,0,0,0-1.71-.492,3.288,3.288,0,0,0-1.883.492,3.448,3.448,0,0,0-1.144,1.318,6.1,6.1,0,0,0-.58,1.868,14.382,14.382,0,0,0-.159,2.173,14.657,14.657,0,0,0,.145,2.028,6.279,6.279,0,0,0,.55,1.883,3.846,3.846,0,0,0,1.116,1.39,2.864,2.864,0,0,0,1.81.551,2.971,2.971,0,0,0,1.826-.521,3.535,3.535,0,0,0,1.086-1.361,6.324,6.324,0,0,0,.521-1.9,17.315,17.315,0,0,0,.13-2.129" transform="translate(-67.348 -13.582)"/>
    <path id="Path_37" data-name="Path 37" d="M232.516,46.007a9.162,9.162,0,0,1-.492,3.128,6.215,6.215,0,0,1-1.405,2.288,5.951,5.951,0,0,1-2.187,1.405,8.029,8.029,0,0,1-2.838.478,6.924,6.924,0,0,1-2.521-.449,5.434,5.434,0,0,1-2-1.332,6.355,6.355,0,0,1-1.332-2.231,9.228,9.228,0,0,1-.492-3.172,7.219,7.219,0,0,1,.492-2.708,6.044,6.044,0,0,1,1.376-2.1,6.3,6.3,0,0,1,2.129-1.361,7.335,7.335,0,0,1,2.723-.493,7.667,7.667,0,0,1,2.621.434,5.852,5.852,0,0,1,2.072,1.26,5.751,5.751,0,0,1,1.361,2.041,7.452,7.452,0,0,1,.492,2.811m-3.042.318a15.608,15.608,0,0,0-.145-2.144,6.535,6.535,0,0,0-.522-1.854,3.337,3.337,0,0,0-1.042-1.3,2.805,2.805,0,0,0-1.71-.492,3.288,3.288,0,0,0-1.883.492,3.448,3.448,0,0,0-1.144,1.318,6.1,6.1,0,0,0-.58,1.868,14.384,14.384,0,0,0-.159,2.173,14.662,14.662,0,0,0,.145,2.028,6.279,6.279,0,0,0,.55,1.883,3.846,3.846,0,0,0,1.116,1.39,2.864,2.864,0,0,0,1.81.551,2.972,2.972,0,0,0,1.826-.521,3.535,3.535,0,0,0,1.086-1.361,6.324,6.324,0,0,0,.521-1.9,17.315,17.315,0,0,0,.13-2.129" transform="translate(-75.468 -13.582)"/>
    <path id="Path_38" data-name="Path 38" d="M253.508,41.777a4.457,4.457,0,0,1,.594,1.289,6.135,6.135,0,0,1,.218,1.376,5.006,5.006,0,0,1-.479,2.245,4.792,4.792,0,0,1-1.3,1.637,5.88,5.88,0,0,1-1.9,1.014,7.377,7.377,0,0,1-2.288.348q-.347,0-.9.03a9.734,9.734,0,0,0-1.072.115,2.983,2.983,0,0,0-.883.275.585.585,0,0,0-.363.536.5.5,0,0,0,.289.434,2.532,2.532,0,0,0,.71.275,6.342,6.342,0,0,0,.84.145c.279.029.507.043.681.043q2.085.145,3.737.363a10.589,10.589,0,0,1,2.8.71,3.625,3.625,0,0,1,2.361,3.678,5.491,5.491,0,0,1-.493,2.318,5.044,5.044,0,0,1-1.477,1.854,7.415,7.415,0,0,1-2.419,1.231,11.127,11.127,0,0,1-3.317.449,13.885,13.885,0,0,1-2.868-.275,7.026,7.026,0,0,1-2.245-.854,4.08,4.08,0,0,1-1.448-1.477,4.3,4.3,0,0,1-.507-2.143,4.061,4.061,0,0,1,.2-1.318,3.767,3.767,0,0,1,.55-1.057,4.85,4.85,0,0,1,.783-.826,4.581,4.581,0,0,1,.9-.593,4.377,4.377,0,0,1-1.217-.652,1.588,1.588,0,0,1-.55-1.347,2.015,2.015,0,0,1,.3-1.13,2.334,2.334,0,0,1,.811-.753,3.821,3.821,0,0,1,1.129-.42,7.748,7.748,0,0,1,1.231-.159.026.026,0,0,0,.03-.029.026.026,0,0,0-.03-.03,5.5,5.5,0,0,1-2.317-1.607,4.241,4.241,0,0,1-.84-2.767,5.207,5.207,0,0,1,.435-2.158,4.621,4.621,0,0,1,1.231-1.651,5.7,5.7,0,0,1,1.926-1.058,7.837,7.837,0,0,1,2.491-.376,5.769,5.769,0,0,1,2.448.434,6.717,6.717,0,0,1,1.666,1.13,4.939,4.939,0,0,1,1.3-.927,3.7,3.7,0,0,1,1.68-.377,4.957,4.957,0,0,1,.71.058,2.571,2.571,0,0,1,.725.217,1.62,1.62,0,0,1,.55.42,1.053,1.053,0,0,1,.217.7,1.548,1.548,0,0,1-.261.883,1.134,1.134,0,0,1-1.013.392.874.874,0,0,1-.725-.232,1.712,1.712,0,0,1-.26-.492,3.9,3.9,0,0,0-.2-.493q-.116-.231-.551-.231a2.057,2.057,0,0,0-.927.231,1.667,1.667,0,0,0-.7.609m-7.85,12.137a2.724,2.724,0,0,0-.782,1.159,4.159,4.159,0,0,0-.289,1.506,3.74,3.74,0,0,0,.449,1.868,4.2,4.2,0,0,0,1.173,1.333,5.021,5.021,0,0,0,1.666.8,7.177,7.177,0,0,0,1.926.261,4.6,4.6,0,0,0,1.636-.291,4.523,4.523,0,0,0,1.347-.782,3.842,3.842,0,0,0,.927-1.159,3.08,3.08,0,0,0,.348-1.449,2.08,2.08,0,0,0-.652-1.593,4.51,4.51,0,0,0-1.782-.955,13.331,13.331,0,0,0-2.664-.492q-1.537-.146-3.3-.2m2.781-5.3a2.394,2.394,0,0,0,2.158-.985,5.207,5.207,0,0,0,.652-2.868,13.722,13.722,0,0,0-.1-1.738,4.114,4.114,0,0,0-.392-1.347,2.181,2.181,0,0,0-.767-.869,2.255,2.255,0,0,0-1.232-.3,2.569,2.569,0,0,0-1.491.392,2.751,2.751,0,0,0-.884,1,4.313,4.313,0,0,0-.434,1.361,9.7,9.7,0,0,0-.116,1.478,5.178,5.178,0,0,0,.666,2.9,2.2,2.2,0,0,0,1.941.985" transform="translate(-83.222 -13.582)"/>
    <path id="Path_39" data-name="Path 39" d="M30.424,72.2q0-.636-.044-1.245a5.813,5.813,0,0,0-.188-1.13,2.466,2.466,0,0,0-.449-.9,1.568,1.568,0,0,0-.826-.521,6.486,6.486,0,0,0-.666-.144q-.347-.059-.666-.087a.283.283,0,0,1-.26-.145.626.626,0,0,1,0-.637.285.285,0,0,1,.26-.145q.985,0,1.767.058t1.825.058c.289,0,.613,0,.97-.014s.725-.024,1.1-.043.743-.033,1.1-.044.681-.014.971-.014a15.939,15.939,0,0,1,2.375.188,7.829,7.829,0,0,1,2.3.71,4.764,4.764,0,0,1,1.739,1.434,3.85,3.85,0,0,1,.681,2.361,4.092,4.092,0,0,1-.275,1.565A3.808,3.808,0,0,1,41.4,74.66a4.643,4.643,0,0,1-1.1.854,9.242,9.242,0,0,1-1.333.623c-.155.058-.222.135-.2.231a.27.27,0,0,0,.2.2,12.778,12.778,0,0,1,2.013.8,5.821,5.821,0,0,1,1.492,1.058,4.091,4.091,0,0,1,.927,1.434,5.421,5.421,0,0,1,.319,1.955,5.171,5.171,0,0,1-.536,2.491,4.116,4.116,0,0,1-1.434,1.55,6.051,6.051,0,0,1-2.042.8,11.843,11.843,0,0,1-2.361.232q-.55,0-1.231-.03c-.454-.019-.923-.034-1.4-.043s-.971-.024-1.463-.044-.952-.029-1.376-.029q-.609,0-1.1.014t-.942.043c-.3.019-.608.044-.927.073s-.681.062-1.086.1a.321.321,0,0,1-.319-.116.567.567,0,0,1-.131-.318.585.585,0,0,1,.087-.348.422.422,0,0,1,.333-.2,8.074,8.074,0,0,0,1.2-.232,1.953,1.953,0,0,0,.826-.449,1.778,1.778,0,0,0,.463-.768,4.188,4.188,0,0,0,.146-1.217Zm3.157,3.071a.9.9,0,0,0,.159.521.6.6,0,0,0,.536.232h.55a8.94,8.94,0,0,0,1.752-.16,3.358,3.358,0,0,0,1.377-.593,2.947,2.947,0,0,0,.913-1.173,4.743,4.743,0,0,0,.332-1.926,3.571,3.571,0,0,0-1-2.853,4.314,4.314,0,0,0-2.882-.855h-.985q-.55,0-.652.3a3.637,3.637,0,0,0-.1,1.028Zm0,5.822a23.64,23.64,0,0,0,.1,2.477,2.717,2.717,0,0,0,.449,1.362,1.551,1.551,0,0,0,1,.565,10.53,10.53,0,0,0,1.752.115,3.029,3.029,0,0,0,2.506-.955,4.575,4.575,0,0,0,.767-2.9,5.482,5.482,0,0,0-.405-2.274,3.413,3.413,0,0,0-1.086-1.377,4.111,4.111,0,0,0-1.607-.681,9.969,9.969,0,0,0-1.97-.188h-.551a.774.774,0,0,0-.767.376,2.059,2.059,0,0,0-.188.927Z" transform="translate(-9.375 -23.146)" fill="#3b5355"/>
    <path id="Path_40" data-name="Path 40" d="M57.1,71.766q0-1.245-.058-1.984a2.793,2.793,0,0,0-.289-1.145,1.176,1.176,0,0,0-.71-.55,7.3,7.3,0,0,0-1.318-.232.23.23,0,0,1-.217-.145.826.826,0,0,1-.087-.29.518.518,0,0,1,.058-.289.253.253,0,0,1,.246-.145q.87-.058,2.1-.174a11.992,11.992,0,0,0,2.3-.434c.27-.077.449-.063.535.044a.7.7,0,0,1,.159.332V82.977q0,.724.029,1.217a1.787,1.787,0,0,0,.218.811,1.207,1.207,0,0,0,.609.492,4.516,4.516,0,0,0,1.173.261.373.373,0,0,1,.262.159.542.542,0,0,1,.086.3.5.5,0,0,1-.086.275.3.3,0,0,1-.262.13,13.789,13.789,0,0,1-1.564-.1,14.983,14.983,0,0,0-1.738-.1,16.271,16.271,0,0,0-1.825.1,16.425,16.425,0,0,1-1.824.1.266.266,0,0,1-.232-.13.487.487,0,0,1-.087-.275.533.533,0,0,1,.087-.3.37.37,0,0,1,.26-.159,5.138,5.138,0,0,0,1.26-.261,1.329,1.329,0,0,0,.652-.477,1.506,1.506,0,0,0,.231-.753q.029-.45.029-1.116Z" transform="translate(-18.732 -22.831)" fill="#3b5355"/>
    <path id="Path_41" data-name="Path 41" d="M82.334,82.934a9.161,9.161,0,0,1-.493,3.128,6.215,6.215,0,0,1-1.405,2.288,5.951,5.951,0,0,1-2.187,1.405,8.029,8.029,0,0,1-2.838.478,6.924,6.924,0,0,1-2.521-.449,5.434,5.434,0,0,1-2-1.332,6.354,6.354,0,0,1-1.332-2.231,9.228,9.228,0,0,1-.493-3.172,7.219,7.219,0,0,1,.493-2.708,6.053,6.053,0,0,1,1.376-2.1,6.308,6.308,0,0,1,2.129-1.361,7.349,7.349,0,0,1,2.723-.493,7.667,7.667,0,0,1,2.621.435,5.852,5.852,0,0,1,2.072,1.26,5.751,5.751,0,0,1,1.361,2.041,7.452,7.452,0,0,1,.493,2.811m-3.042.318a15.608,15.608,0,0,0-.145-2.144,6.535,6.535,0,0,0-.522-1.854,3.337,3.337,0,0,0-1.042-1.3,2.805,2.805,0,0,0-1.71-.493,3.288,3.288,0,0,0-1.883.493,3.453,3.453,0,0,0-1.144,1.318,6.1,6.1,0,0,0-.58,1.868,14.384,14.384,0,0,0-.159,2.173,14.661,14.661,0,0,0,.145,2.028,6.279,6.279,0,0,0,.55,1.883,3.846,3.846,0,0,0,1.116,1.39,2.864,2.864,0,0,0,1.81.551,2.971,2.971,0,0,0,1.826-.521,3.535,3.535,0,0,0,1.086-1.361,6.324,6.324,0,0,0,.521-1.9,17.315,17.315,0,0,0,.131-2.129" transform="translate(-23.774 -26.293)" fill="#3b5355"/>
    <path id="Path_42" data-name="Path 42" d="M95.871,82.557c-.1,0-.15.034-.159.1a1.66,1.66,0,0,0-.015.247,8.454,8.454,0,0,0,.333,2.549,4.516,4.516,0,0,0,.927,1.695,3.419,3.419,0,0,0,1.419.941,5.338,5.338,0,0,0,1.782.29,11.264,11.264,0,0,0,1.912-.159,3.344,3.344,0,0,0,1.594-.71.365.365,0,0,1,.3-.087.439.439,0,0,1,.26.145.56.56,0,0,1,.131.26.314.314,0,0,1-.058.26,4.976,4.976,0,0,1-2.086,1.681,8.991,8.991,0,0,1-5.865-.058,5.539,5.539,0,0,1-2.086-1.462,6,6,0,0,1-1.217-2.2,9.2,9.2,0,0,1-.39-2.737,7.627,7.627,0,0,1,.477-2.694,6.449,6.449,0,0,1,3.4-3.678,6.185,6.185,0,0,1,2.636-.551,5.688,5.688,0,0,1,2.216.42,4.9,4.9,0,0,1,1.695,1.159,5.29,5.29,0,0,1,1.087,1.767,6.175,6.175,0,0,1,.391,2.216q0,.608-.434.609Zm5.3-1.014c.27,0,.424-.1.464-.29a3.593,3.593,0,0,0,.058-.7,3.694,3.694,0,0,0-.188-1.173,3.212,3.212,0,0,0-.536-1,2.645,2.645,0,0,0-.839-.7A2.372,2.372,0,0,0,99,77.43a3.054,3.054,0,0,0-1.347.274,3,3,0,0,0-.955.725,3.065,3.065,0,0,0-.594,1.057,6.806,6.806,0,0,0-.29,1.275,2.531,2.531,0,0,0-.043.565c.009.146.053.218.131.218Z" transform="translate(-31.893 -26.293)" fill="#3b5355"/>
    <path id="Path_43" data-name="Path 43" d="M118.31,86.439q0,.724.03,1.217a1.9,1.9,0,0,0,.2.811,1.141,1.141,0,0,0,.565.492,3.957,3.957,0,0,0,1.086.26.374.374,0,0,1,.261.159.539.539,0,0,1,.087.3.49.49,0,0,1-.087.275.293.293,0,0,1-.261.13,12.515,12.515,0,0,1-1.434-.1,14.77,14.77,0,0,0-1.723-.1,15.646,15.646,0,0,0-1.8.1,13.839,13.839,0,0,1-1.593.1.267.267,0,0,1-.232-.13.491.491,0,0,1-.087-.275.54.54,0,0,1,.087-.3.376.376,0,0,1,.261-.159,4.029,4.029,0,0,0,1.116-.26,1.172,1.172,0,0,0,.565-.478,1.727,1.727,0,0,0,.2-.753c.019-.3.03-.672.03-1.115V82.326q0-1.361-.03-2.173a3.868,3.868,0,0,0-.2-1.245,1.025,1.025,0,0,0-.536-.595,3.1,3.1,0,0,0-1.058-.188.274.274,0,0,1-.231-.115.636.636,0,0,1-.116-.261.388.388,0,0,1,.044-.275.257.257,0,0,1,.246-.131q.493-.058,1.434-.232t2.042-.463a.761.761,0,0,1,.232-.043c.116-.01.193-.015.231-.015a.633.633,0,0,1,.493.232.707.707,0,0,1,.174.55l-.058,1.42q0,.145.116.029c.1-.135.256-.338.477-.609a5.087,5.087,0,0,1,.87-.811,5.527,5.527,0,0,1,1.3-.71,4.734,4.734,0,0,1,1.753-.3,4.98,4.98,0,0,1,2.839.71,4.592,4.592,0,0,1,1.622,2.1,3.736,3.736,0,0,1,.55-.8,5.575,5.575,0,0,1,1.043-.927,6.832,6.832,0,0,1,1.448-.768,4.8,4.8,0,0,1,1.767-.319,5.231,5.231,0,0,1,2.26.42,3.392,3.392,0,0,1,1.361,1.145,4.349,4.349,0,0,1,.667,1.723,12.658,12.658,0,0,1,.173,2.158v4.606q0,.724.029,1.217a2.264,2.264,0,0,0,.174.811,1.036,1.036,0,0,0,.463.492,2.821,2.821,0,0,0,.927.26.373.373,0,0,1,.26.159.54.54,0,0,1,.087.3.491.491,0,0,1-.087.275.292.292,0,0,1-.26.13,10.7,10.7,0,0,1-1.188-.1,13.667,13.667,0,0,0-1.68-.1,15.268,15.268,0,0,0-1.782.1,13.068,13.068,0,0,1-1.521.1.267.267,0,0,1-.232-.13.49.49,0,0,1-.087-.275.539.539,0,0,1,.087-.3.377.377,0,0,1,.262-.159,3.56,3.56,0,0,0,1.057-.26,1.186,1.186,0,0,0,.535-.478,1.718,1.718,0,0,0,.2-.753c.019-.3.029-.672.029-1.115V82.875q0-.782-.058-1.622a5.811,5.811,0,0,0-.3-1.535,2.769,2.769,0,0,0-.739-1.144,1.992,1.992,0,0,0-1.39-.449,3.206,3.206,0,0,0-1.52.376,4.455,4.455,0,0,0-1.232.956,4.839,4.839,0,0,0-.826,1.26,3.217,3.217,0,0,0-.3,1.318v4.4q0,.84.029,1.347a2.061,2.061,0,0,0,.174.8.86.86,0,0,0,.463.42,4.089,4.089,0,0,0,.927.217.373.373,0,0,1,.26.159.54.54,0,0,1,.087.3.491.491,0,0,1-.087.275.292.292,0,0,1-.26.13,10.715,10.715,0,0,1-1.188-.1,13.658,13.658,0,0,0-1.679-.1,15.268,15.268,0,0,0-1.782.1,12.535,12.535,0,0,1-1.434.1.267.267,0,0,1-.231-.13.49.49,0,0,1-.087-.275.539.539,0,0,1,.087-.3.376.376,0,0,1,.26-.159,5.08,5.08,0,0,0,1-.217.941.941,0,0,0,.521-.405,1.692,1.692,0,0,0,.188-.739q.029-.463.029-1.245V82.875q0-.782-.073-1.622a5.779,5.779,0,0,0-.332-1.535,2.752,2.752,0,0,0-.782-1.144,2.151,2.151,0,0,0-1.449-.449,3.69,3.69,0,0,0-1.695.363,3.384,3.384,0,0,0-1.158.942,3.984,3.984,0,0,0-.666,1.289,4.76,4.76,0,0,0-.218,1.4Z" transform="translate(-39.008 -26.293)" fill="#3b5355"/>
    <path id="Path_44" data-name="Path 44" d="M157.755,82.557c-.1,0-.15.034-.159.1a1.662,1.662,0,0,0-.015.247,8.453,8.453,0,0,0,.333,2.549,4.516,4.516,0,0,0,.927,1.695,3.419,3.419,0,0,0,1.419.941,5.338,5.338,0,0,0,1.782.29,11.264,11.264,0,0,0,1.912-.159,3.344,3.344,0,0,0,1.594-.71.365.365,0,0,1,.3-.087.439.439,0,0,1,.26.145.561.561,0,0,1,.13.26.314.314,0,0,1-.058.26A4.976,4.976,0,0,1,164.1,89.77a8.991,8.991,0,0,1-5.865-.058,5.539,5.539,0,0,1-2.086-1.462,6.005,6.005,0,0,1-1.217-2.2,9.2,9.2,0,0,1-.39-2.737,7.627,7.627,0,0,1,.477-2.694,6.449,6.449,0,0,1,3.4-3.678,6.186,6.186,0,0,1,2.636-.551,5.688,5.688,0,0,1,2.216.42,4.9,4.9,0,0,1,1.695,1.159,5.29,5.29,0,0,1,1.087,1.767,6.175,6.175,0,0,1,.391,2.216q0,.608-.434.609Zm5.3-1.014c.27,0,.424-.1.464-.29a3.592,3.592,0,0,0,.058-.7,3.694,3.694,0,0,0-.188-1.173,3.212,3.212,0,0,0-.536-1,2.646,2.646,0,0,0-.839-.7,2.372,2.372,0,0,0-1.13-.26,3.054,3.054,0,0,0-1.347.274,3,3,0,0,0-.955.725,3.065,3.065,0,0,0-.594,1.057,6.8,6.8,0,0,0-.29,1.275,2.529,2.529,0,0,0-.043.565c.009.146.053.218.131.218Z" transform="translate(-53.194 -26.293)" fill="#3b5355"/>
    <path id="Path_45" data-name="Path 45" d="M180.135,86.439q0,.724.029,1.217a2.543,2.543,0,0,0,.159.811.985.985,0,0,0,.435.492,2.547,2.547,0,0,0,.855.26.372.372,0,0,1,.26.159.54.54,0,0,1,.087.3.49.49,0,0,1-.087.275.291.291,0,0,1-.26.13,10.4,10.4,0,0,1-1.086-.1,13.34,13.34,0,0,0-1.666-.1,15.657,15.657,0,0,0-1.8.1,14.04,14.04,0,0,1-1.622.1.266.266,0,0,1-.232-.13.486.486,0,0,1-.087-.275.535.535,0,0,1,.087-.3.374.374,0,0,1,.261-.159,5.1,5.1,0,0,0,1.115-.232,1.134,1.134,0,0,0,.58-.434,1.548,1.548,0,0,0,.217-.754q.029-.463.029-1.188v-3.65q0-1.418-.029-2.36a5.728,5.728,0,0,0-.2-1.493,1.283,1.283,0,0,0-.55-.767,2.165,2.165,0,0,0-1.072-.218.344.344,0,0,1-.275-.115.384.384,0,0,1-.1-.261.42.42,0,0,1,.1-.289.344.344,0,0,1,.275-.116,10.767,10.767,0,0,0,1.608-.174,18.73,18.73,0,0,0,2.158-.492.511.511,0,0,1,.607.159,1.025,1.025,0,0,1,.2.623v1.158q0,.059.043.073t.073-.043a5.187,5.187,0,0,1,2.578-2.028,4.14,4.14,0,0,1,1.419-.231,4.666,4.666,0,0,1,3.4,1.2,5.267,5.267,0,0,1,1.231,3.9v4.954q0,.782.043,1.274a2.125,2.125,0,0,0,.2.8,1.04,1.04,0,0,0,.492.464,3.335,3.335,0,0,0,.941.246.376.376,0,0,1,.261.159.539.539,0,0,1,.087.3.49.49,0,0,1-.087.275.294.294,0,0,1-.261.13,11.864,11.864,0,0,1-1.232-.1,15.124,15.124,0,0,0-3.49,0,12.01,12.01,0,0,1-1.39.1.265.265,0,0,1-.231-.13.485.485,0,0,1-.087-.275.535.535,0,0,1,.087-.3.372.372,0,0,1,.26-.159,3.052,3.052,0,0,0,.97-.26,1.128,1.128,0,0,0,.493-.478,1.878,1.878,0,0,0,.189-.753c.019-.3.029-.672.029-1.115v-4.4q0-.724-.058-1.449a3.924,3.924,0,0,0-.319-1.3,2.448,2.448,0,0,0-.753-.956,2.2,2.2,0,0,0-1.361-.376,3.9,3.9,0,0,0-1.521.275,3.291,3.291,0,0,0-1.1.738,3.094,3.094,0,0,0-.681,1.087,3.727,3.727,0,0,0-.232,1.318Z" transform="translate(-60.279 -26.293)" fill="#3b5355"/>
    <path id="Path_46" data-name="Path 46" d="M214,81.427q0,1.187.044,1.926a2.945,2.945,0,0,0,.26,1.159,1.162,1.162,0,0,0,.652.579,3.654,3.654,0,0,0,1.217.159.214.214,0,0,1,.188.131.619.619,0,0,1,.072.3.77.77,0,0,1-.058.289.2.2,0,0,1-.2.145c-.155,0-.286.005-.392.015l-.318.028c-.107.01-.222.025-.348.044s-.286.039-.479.058c-.154.02-.367.058-.637.116s-.55.115-.839.174-.56.106-.811.145a4.356,4.356,0,0,1-.492.058c-.155,0-.28-.135-.376-.405a3.476,3.476,0,0,1-.145-1.13c0-.1-.024-.135-.072-.116a.377.377,0,0,0-.131.087,6.8,6.8,0,0,1-1.738,1.188,5.027,5.027,0,0,1-2.057.376,5.7,5.7,0,0,1-2.3-.449,4.783,4.783,0,0,1-1.738-1.274,5.851,5.851,0,0,1-1.1-2.013,8.509,8.509,0,0,1-.39-2.665,8.378,8.378,0,0,1,.608-3.346A6.787,6.787,0,0,1,204,74.691a6.325,6.325,0,0,1,2.217-1.346,7.309,7.309,0,0,1,2.447-.435,6.947,6.947,0,0,1,1.275.131,5.077,5.077,0,0,1,1.333.449V71.722q0-1.245-.058-1.984a2.631,2.631,0,0,0-.3-1.145,1.242,1.242,0,0,0-.753-.55,8.2,8.2,0,0,0-1.376-.231.213.213,0,0,1-.188-.146.636.636,0,0,1-.073-.289.759.759,0,0,1,.058-.289.2.2,0,0,1,.2-.145c.328-.019.685-.044,1.072-.072s.782-.063,1.188-.1a11.5,11.5,0,0,0,1.188-.173q.579-.116,1.1-.261c.251-.077.42-.063.507.044a.708.708,0,0,1,.159.332Zm-2.722-5.88a3.775,3.775,0,0,0-1.188-1.028,3.281,3.281,0,0,0-1.535-.333,4.432,4.432,0,0,0-1.565.26,2.588,2.588,0,0,0-1.173.9,4.536,4.536,0,0,0-.725,1.739,13.072,13.072,0,0,0-.246,2.781,9.086,9.086,0,0,0,.2,1.927,6.472,6.472,0,0,0,.593,1.679,3.706,3.706,0,0,0,.956,1.188,2.052,2.052,0,0,0,1.318.449,4.291,4.291,0,0,0,2.013-.42,4.374,4.374,0,0,0,1.348-1.087Z" transform="translate(-69.462 -22.816)" fill="#3b5355"/>
    <path id="Path_47" data-name="Path 47" d="M236.613,86.815a3.714,3.714,0,0,0,.188,1.419.733.733,0,0,0,.738.406,1.564,1.564,0,0,0,.521-.073,3.4,3.4,0,0,0,.58-.3.165.165,0,0,1,.188,0,.548.548,0,0,1,.174.159.647.647,0,0,1,.1.232.221.221,0,0,1-.058.217,3.372,3.372,0,0,1-2.664,1.361,2.309,2.309,0,0,1-1.434-.449,2.858,2.858,0,0,1-.883-1.057q-.059-.144-.174-.029a6.582,6.582,0,0,1-1.753,1.1,6.31,6.31,0,0,1-2.505.434,3.48,3.48,0,0,1-2.55-.883,3.357,3.357,0,0,1-.9-2.506,3.508,3.508,0,0,1,1.941-3.2,11.53,11.53,0,0,1,5.648-1.115c.039,0,.068-.048.087-.146a4.661,4.661,0,0,0,.029-.666v-.782a7.662,7.662,0,0,0-.116-1.361,3.471,3.471,0,0,0-.391-1.115,2,2,0,0,0-.767-.754,2.473,2.473,0,0,0-1.217-.274,3.215,3.215,0,0,0-1.738.42A1.249,1.249,0,0,0,229,78.936a1.109,1.109,0,0,0,.2.623,1.111,1.111,0,0,1,.2.623,1.077,1.077,0,0,1-.405.782,1.4,1.4,0,0,1-.985.376,1.341,1.341,0,0,1-1.116-.42,1.6,1.6,0,0,1-.333-1.028,2.563,2.563,0,0,1,.405-1.376,3.66,3.66,0,0,1,1.1-1.115,5.973,5.973,0,0,1,1.622-.739,6.775,6.775,0,0,1,1.941-.275,5.671,5.671,0,0,1,3.649,1.072,4.316,4.316,0,0,1,1.333,3.564Zm-2.723-2.868a1.544,1.544,0,0,0-.029-.392c-.02-.048-.068-.072-.146-.072a7.36,7.36,0,0,0-3.519,1,2.494,2.494,0,0,0-.71,3.505,1.674,1.674,0,0,0,1.448.593,4.226,4.226,0,0,0,1.405-.26,4.139,4.139,0,0,0,1.317-.753.665.665,0,0,0,.232-.464Z" transform="translate(-77.855 -26.293)" fill="#3b5355"/>
    <path id="Path_48" data-name="Path 48" d="M258.3,86.815a3.712,3.712,0,0,0,.188,1.419.733.733,0,0,0,.738.406,1.564,1.564,0,0,0,.521-.073,3.4,3.4,0,0,0,.58-.3.165.165,0,0,1,.188,0,.548.548,0,0,1,.174.159.646.646,0,0,1,.1.232.221.221,0,0,1-.058.217,3.372,3.372,0,0,1-2.664,1.361,2.309,2.309,0,0,1-1.434-.449,2.858,2.858,0,0,1-.883-1.057q-.059-.144-.174-.029a6.582,6.582,0,0,1-1.753,1.1,6.31,6.31,0,0,1-2.505.434,3.48,3.48,0,0,1-2.55-.883,3.357,3.357,0,0,1-.9-2.506,3.508,3.508,0,0,1,1.941-3.2,11.53,11.53,0,0,1,5.648-1.115c.039,0,.068-.048.087-.146a4.661,4.661,0,0,0,.029-.666v-.782a7.665,7.665,0,0,0-.116-1.361,3.471,3.471,0,0,0-.391-1.115,2,2,0,0,0-.767-.754,2.473,2.473,0,0,0-1.217-.274,3.215,3.215,0,0,0-1.738.42,1.249,1.249,0,0,0-.666,1.086,1.109,1.109,0,0,0,.2.623,1.111,1.111,0,0,1,.2.623,1.077,1.077,0,0,1-.405.782,1.4,1.4,0,0,1-.985.376,1.341,1.341,0,0,1-1.116-.42,1.6,1.6,0,0,1-.333-1.028,2.564,2.564,0,0,1,.405-1.376,3.668,3.668,0,0,1,1.1-1.115,5.973,5.973,0,0,1,1.622-.739,6.775,6.775,0,0,1,1.941-.275,5.671,5.671,0,0,1,3.649,1.072,4.316,4.316,0,0,1,1.333,3.564Zm-2.723-2.868a1.544,1.544,0,0,0-.029-.392c-.02-.048-.068-.072-.146-.072a7.36,7.36,0,0,0-3.519,1,2.494,2.494,0,0,0-.71,3.505,1.674,1.674,0,0,0,1.448.593,4.225,4.225,0,0,0,1.405-.26,4.139,4.139,0,0,0,1.318-.753.665.665,0,0,0,.232-.464Z" transform="translate(-85.32 -26.293)" fill="#3b5355"/>
    <path id="Path_49" data-name="Path 49" d="M271.82,71.766q0-1.245-.058-1.984a2.794,2.794,0,0,0-.289-1.145,1.176,1.176,0,0,0-.71-.55,7.3,7.3,0,0,0-1.318-.232.23.23,0,0,1-.217-.145.826.826,0,0,1-.087-.29.519.519,0,0,1,.058-.289.253.253,0,0,1,.246-.145q.87-.058,2.1-.174a11.993,11.993,0,0,0,2.3-.434c.27-.077.449-.063.535.044a.7.7,0,0,1,.159.332V82.977q0,.724.029,1.217a1.787,1.787,0,0,0,.218.811,1.207,1.207,0,0,0,.609.492,4.516,4.516,0,0,0,1.173.261.373.373,0,0,1,.262.159.543.543,0,0,1,.086.3.5.5,0,0,1-.086.275.3.3,0,0,1-.262.13,13.788,13.788,0,0,1-1.564-.1,14.983,14.983,0,0,0-1.738-.1,16.27,16.27,0,0,0-1.825.1,16.425,16.425,0,0,1-1.824.1.266.266,0,0,1-.232-.13.487.487,0,0,1-.087-.275.533.533,0,0,1,.087-.3.37.37,0,0,1,.26-.159,5.138,5.138,0,0,0,1.26-.261,1.329,1.329,0,0,0,.652-.477,1.506,1.506,0,0,0,.231-.753q.029-.45.029-1.116Z" transform="translate(-92.64 -22.831)" fill="#3b5355"/>
    <path id="Path_50" data-name="Path 50" d="M114.83,126.717h-1.973v1.222h1.626v.6h-1.626v1.688H112.2v-4.095h2.631Z" transform="translate(-38.62 -43.414)" fill="#1d1d1b"/>
    <path id="Path_51" data-name="Path 51" d="M118.446,127.679a1.012,1.012,0,0,1,.248.031v.577h-.2a.918.918,0,0,0-.633.224.784.784,0,0,0-.254.62v1.625h-.652V127.71h.608v.4a1.063,1.063,0,0,1,.894-.428Z" transform="translate(-40.258 -43.948)" fill="#1d1d1b"/>
    <path id="Path_52" data-name="Path 52" d="M121.452,127.623a1.278,1.278,0,0,1,.913.329,1.24,1.24,0,0,1,.34.943v1.843H122.1V130.4a1.2,1.2,0,0,1-.975.41,1.15,1.15,0,0,1-.763-.242.793.793,0,0,1-.291-.639.746.746,0,0,1,.3-.632,1.321,1.321,0,0,1,.819-.236h.862v-.2a.585.585,0,0,0-.645-.652,1.088,1.088,0,0,0-.838.454l-.378-.385a1.477,1.477,0,0,1,1.284-.651Zm.36,2.475a.656.656,0,0,0,.23-.515v-.056h-.782q-.54,0-.54.372a.337.337,0,0,0,.15.3.663.663,0,0,0,.384.106.817.817,0,0,0,.559-.2" transform="translate(-41.329 -43.929)" fill="#1d1d1b"/>
    <path id="Path_53" data-name="Path 53" d="M127.024,127.629a1.077,1.077,0,0,1,.837.335,1.244,1.244,0,0,1,.3.881v1.9h-.651v-1.818a.719.719,0,0,0-.186-.515.641.641,0,0,0-.484-.2.67.67,0,0,0-.7.7v1.817H125.5V127.69h.609v.3a1.182,1.182,0,0,1,.912-.372Z" transform="translate(-43.198 -43.929)" fill="#1d1d1b"/>
    <path id="Path_54" data-name="Path 54" d="M132.238,127.634a1.535,1.535,0,0,1,.756.186,1.424,1.424,0,0,1,.534.515l-.459.36a.97.97,0,0,0-.819-.466.9.9,0,0,0-.689.286.991.991,0,0,0-.267.707.978.978,0,0,0,.273.708.919.919,0,0,0,.689.279.994.994,0,0,0,.818-.459l.46.353a1.418,1.418,0,0,1-1.284.707,1.589,1.589,0,0,1-1.607-1.6,1.52,1.52,0,0,1,.466-1.129,1.581,1.581,0,0,1,1.148-.46Z" transform="translate(-44.969 -43.929)" fill="#1d1d1b"/>
    <path id="Path_55" data-name="Path 55" d="M136.43,125.339a.427.427,0,0,1,.311.13.412.412,0,0,1,.13.3.391.391,0,0,1-.13.3.464.464,0,0,1-.633,0,.389.389,0,0,1-.13-.3.426.426,0,0,1,.13-.31.431.431,0,0,1,.317-.13Zm.323,4.616H136.1v-3.047h.651Z" transform="translate(-46.805 -43.141)" fill="#1d1d1b"/>
    <path id="Path_56" data-name="Path 56" d="M139.372,127.641a1.313,1.313,0,0,1,1.06.471l-.353.4a.957.957,0,0,0-.713-.311c-.279,0-.416.1-.416.292a.232.232,0,0,0,.093.192,1.463,1.463,0,0,0,.316.161l.292.117a1.839,1.839,0,0,1,.633.385.732.732,0,0,1,.2.527.8.8,0,0,1-.323.683,1.31,1.31,0,0,1-.806.242,1.477,1.477,0,0,1-1.228-.59l.372-.409a1.2,1.2,0,0,0,.856.434.675.675,0,0,0,.354-.087.283.283,0,0,0,.143-.254.24.24,0,0,0-.1-.21,1.646,1.646,0,0,0-.323-.168l-.31-.13a1.843,1.843,0,0,1-.6-.367.7.7,0,0,1-.193-.521.764.764,0,0,1,.3-.645,1.238,1.238,0,0,1,.769-.235Z" transform="translate(-47.544 -43.929)" fill="#1d1d1b"/>
    <path id="Path_57" data-name="Path 57" d="M144.192,127.634a1.539,1.539,0,0,1,.757.186,1.427,1.427,0,0,1,.534.515l-.459.36a.97.97,0,0,0-.819-.466.9.9,0,0,0-.689.286.991.991,0,0,0-.267.707.978.978,0,0,0,.273.708.919.919,0,0,0,.689.279.994.994,0,0,0,.818-.459l.46.353a1.418,1.418,0,0,1-1.284.707,1.588,1.588,0,0,1-1.607-1.6,1.522,1.522,0,0,1,.465-1.129,1.584,1.584,0,0,1,1.148-.46Z" transform="translate(-49.083 -43.929)" fill="#1d1d1b"/>
    <path id="Path_58" data-name="Path 58" d="M149.135,127.623a1.275,1.275,0,0,1,.912.329,1.237,1.237,0,0,1,.341.943v1.843h-.607V130.4a1.2,1.2,0,0,1-.974.41,1.15,1.15,0,0,1-.763-.242.793.793,0,0,1-.291-.639.746.746,0,0,1,.3-.632,1.32,1.32,0,0,1,.819-.236h.862v-.2a.585.585,0,0,0-.645-.652,1.088,1.088,0,0,0-.838.454l-.378-.385a1.477,1.477,0,0,1,1.284-.651Zm.36,2.475a.658.658,0,0,0,.23-.515v-.056h-.782q-.54,0-.54.372a.337.337,0,0,0,.15.3.663.663,0,0,0,.384.106.816.816,0,0,0,.559-.2" transform="translate(-50.858 -43.929)" fill="#1d1d1b"/>
    <path id="Path_59" data-name="Path 59" d="M155.9,126.127h.658v4.095H155.9Zm3.387,4.095h-.813l-1.9-2.177,1.718-1.918h.807l-1.7,1.918Z" transform="translate(-53.661 -43.414)" fill="#1d1d1b"/>
    <path id="Path_60" data-name="Path 60" d="M163.465,127.679a1.012,1.012,0,0,1,.248.031v.577h-.2a.918.918,0,0,0-.633.224.784.784,0,0,0-.254.62v1.625h-.652V127.71h.608v.4a1.063,1.063,0,0,1,.894-.428Z" transform="translate(-55.754 -43.948)" fill="#1d1d1b"/>
    <path id="Path_61" data-name="Path 61" d="M166.471,127.623a1.277,1.277,0,0,1,.913.329,1.24,1.24,0,0,1,.341.943v1.843h-.608V130.4a1.2,1.2,0,0,1-.974.41,1.148,1.148,0,0,1-.763-.242.794.794,0,0,1-.291-.639.746.746,0,0,1,.3-.632,1.32,1.32,0,0,1,.818-.236h.862v-.2a.584.584,0,0,0-.645-.652,1.089,1.089,0,0,0-.838.454l-.378-.385a1.478,1.478,0,0,1,1.285-.651Zm.361,2.475a.656.656,0,0,0,.23-.515v-.056h-.783q-.54,0-.54.372a.339.339,0,0,0,.15.3.663.663,0,0,0,.384.106.82.82,0,0,0,.559-.2" transform="translate(-56.825 -43.929)" fill="#1d1d1b"/>
    <path id="Path_62" data-name="Path 62" d="M173.964,127.634a1.06,1.06,0,0,1,.832.335,1.275,1.275,0,0,1,.3.881v1.905h-.658v-1.812a.772.772,0,0,0-.167-.521.574.574,0,0,0-.459-.193.637.637,0,0,0-.485.193.673.673,0,0,0-.186.483v1.843h-.651v-1.811a.738.738,0,0,0-.174-.515.6.6,0,0,0-.466-.2.635.635,0,0,0-.483.192.7.7,0,0,0-.186.509v1.811h-.651V127.69h.608v.292a1.115,1.115,0,0,1,.875-.36,1.007,1.007,0,0,1,.925.478,1.236,1.236,0,0,1,1.03-.478Z" transform="translate(-58.697 -43.929)" fill="#1d1d1b"/>
    <path id="Path_63" data-name="Path 63" d="M181.547,129.015a2,2,0,0,1-.049.409h-2.271a.926.926,0,0,0,.334.6,1.044,1.044,0,0,0,.67.211,1.313,1.313,0,0,0,.887-.36l.31.447a1.707,1.707,0,0,1-1.216.491,1.609,1.609,0,0,1-1.173-.46,1.523,1.523,0,0,1-.465-1.135,1.563,1.563,0,0,1,.459-1.136,1.5,1.5,0,0,1,1.117-.466,1.369,1.369,0,0,1,1.408,1.4Zm-1.427-.844a.841.841,0,0,0-.564.2.958.958,0,0,0-.317.546H180.9a.731.731,0,0,0-.23-.546.792.792,0,0,0-.553-.2Z" transform="translate(-61.468 -43.925)" fill="#1d1d1b"/>
    <path id="Path_64" data-name="Path 64" d="M185.739,127.679a1.012,1.012,0,0,1,.248.031v.577h-.2a.918.918,0,0,0-.633.224.784.784,0,0,0-.254.62v1.625h-.652V127.71h.608v.4a1.063,1.063,0,0,1,.894-.428Z" transform="translate(-63.421 -43.948)" fill="#1d1d1b"/>
    <path id="Path_65" data-name="Path 65" d="M188.314,133.13h-.527l.056-1.762h.757Z" transform="translate(-64.638 -45.218)" fill="#1d1d1b"/>
    <path id="Path_66" data-name="Path 66" d="M196.871,126.032v4.157h-.322v-3.331l-1.44,2.053h-.124l-1.445-2.053v3.331h-.323v-4.157h.124l1.7,2.439,1.707-2.439Z" transform="translate(-66.507 -43.382)" fill="#1d1d1b"/>
    <path id="Path_67" data-name="Path 67" d="M201.6,126.063a1.423,1.423,0,0,1,.708.174,1.45,1.45,0,0,1,.515.471l-.236.18a1.156,1.156,0,0,0-.993-.534,1.007,1.007,0,0,0-.6.174.6.6,0,0,0-.254.521.763.763,0,0,0,.051.279.5.5,0,0,0,.161.21,1.318,1.318,0,0,0,.217.15c.068.037.167.087.3.148l.459.224a2.478,2.478,0,0,1,.719.477.9.9,0,0,1,.223.639.958.958,0,0,1-.359.782,1.391,1.391,0,0,1-.912.3,1.583,1.583,0,0,1-.843-.237,1.827,1.827,0,0,1-.62-.633l.242-.18a1.416,1.416,0,0,0,1.235.745,1.052,1.052,0,0,0,.67-.205.687.687,0,0,0,.26-.571.623.623,0,0,0-.174-.477,2.342,2.342,0,0,0-.583-.367l-.466-.223a2.362,2.362,0,0,1-.67-.434.858.858,0,0,1-.236-.633.892.892,0,0,1,.348-.738,1.343,1.343,0,0,1,.851-.273Z" transform="translate(-68.89 -43.381)" fill="#1d1d1b"/>
    <path id="Path_68" data-name="Path 68" d="M207.051,127.719a1.434,1.434,0,0,1,1.21.614l-.224.18a1.224,1.224,0,0,0-1.861-.136,1.232,1.232,0,0,0-.354.893,1.252,1.252,0,0,0,.354.906,1.177,1.177,0,0,0,.875.366,1.2,1.2,0,0,0,.993-.5l.223.18a1.438,1.438,0,0,1-1.216.614,1.477,1.477,0,0,1-1.092-.459,1.6,1.6,0,0,1,0-2.215,1.475,1.475,0,0,1,1.1-.453Z" transform="translate(-70.739 -43.958)" fill="#1d1d1b"/>
    <path id="Path_69" data-name="Path 69" d="M113.737,137.477a1.267,1.267,0,0,1,.906.317,1.059,1.059,0,0,1,.335.807,1.075,1.075,0,0,1-.335.818,1.273,1.273,0,0,1-.912.317h-1.067v1.836h-.323v-4.095h1.4Zm-1.074.3v1.676h1.055a.946.946,0,0,0,.683-.237.884.884,0,0,0,0-1.215.907.907,0,0,0-.676-.236Z" transform="translate(-38.669 -47.321)" fill="#1d1d1b"/>
    <path id="Path_70" data-name="Path 70" d="M118.2,139.057a1.176,1.176,0,0,1,.968.478l-.205.2a1.037,1.037,0,0,0-.781-.385.742.742,0,0,0-.434.118.4.4,0,0,0-.174.354.375.375,0,0,0,.13.3,1.939,1.939,0,0,0,.434.242l.279.125a1.869,1.869,0,0,1,.577.359.685.685,0,0,1,.2.5.721.721,0,0,1-.292.614,1.16,1.16,0,0,1-.708.218,1.347,1.347,0,0,1-1.154-.621l.218-.2a1.193,1.193,0,0,0,.936.533.814.814,0,0,0,.485-.136.45.45,0,0,0,.191-.39.558.558,0,0,0-.037-.212.378.378,0,0,0-.15-.167,1.8,1.8,0,0,0-.186-.111c-.05-.025-.131-.062-.242-.111l-.273-.118a1.883,1.883,0,0,1-.546-.335.613.613,0,0,1-.186-.466.689.689,0,0,1,.279-.577,1.072,1.072,0,0,1,.675-.21Z" transform="translate(-40.287 -47.865)" fill="#1d1d1b"/>
    <path id="Path_71" data-name="Path 71" d="M124.11,139.152l-1.5,3.486a.983.983,0,0,1-.936.689,1.576,1.576,0,0,1-.422-.056V143a1.577,1.577,0,0,0,.372.044.735.735,0,0,0,.694-.515l.192-.44-1.284-2.935h.342l1.11,2.575,1.085-2.575Z" transform="translate(-41.729 -47.897)" fill="#1d1d1b"/>
    <path id="Path_72" data-name="Path 72" d="M127.8,139.068a1.434,1.434,0,0,1,1.21.614l-.224.18a1.224,1.224,0,0,0-1.861-.136,1.232,1.232,0,0,0-.353.893,1.252,1.252,0,0,0,.353.906,1.177,1.177,0,0,0,.875.366,1.2,1.2,0,0,0,.993-.5l.223.18a1.438,1.438,0,0,1-1.216.614,1.477,1.477,0,0,1-1.092-.459,1.6,1.6,0,0,1,0-2.215,1.475,1.475,0,0,1,1.1-.453Z" transform="translate(-43.461 -47.864)" fill="#1d1d1b"/>
    <path id="Path_73" data-name="Path 73" d="M133.072,138.22a1.012,1.012,0,0,1,.8.323,1.224,1.224,0,0,1,.291.843v1.893h-.31v-1.868a.946.946,0,0,0-.223-.651.773.773,0,0,0-.608-.249.862.862,0,0,0-.888.9v1.868h-.31v-4.653h.31v2.066a1.064,1.064,0,0,1,.95-.472Z" transform="translate(-45.375 -47.028)" fill="#1d1d1b"/>
    <path id="Path_74" data-name="Path 74" d="M138.306,139.064a1.512,1.512,0,0,1,1.1.446,1.478,1.478,0,0,1,.452,1.105,1.513,1.513,0,0,1-.452,1.116,1.5,1.5,0,0,1-1.1.453,1.47,1.47,0,0,1-1.092-.453,1.534,1.534,0,0,1-.447-1.116,1.51,1.51,0,0,1,.447-1.11,1.491,1.491,0,0,1,1.1-.447Zm.007.291a1.18,1.18,0,0,0-.881.367,1.329,1.329,0,0,0,0,1.805,1.237,1.237,0,0,0,1.75-.007,1.23,1.23,0,0,0,.354-.894,1.246,1.246,0,0,0-.354-.9,1.172,1.172,0,0,0-.875-.367Z" transform="translate(-47.075 -47.865)" fill="#1d1d1b"/>
    <rect id="Rectangle_31" data-name="Rectangle 31" width="0.31" height="4.653" transform="translate(93.707 89.597)" fill="#1d1d1b"/>
    <path id="Path_75" data-name="Path 75" d="M146.326,139.064a1.512,1.512,0,0,1,1.1.446,1.478,1.478,0,0,1,.452,1.105,1.513,1.513,0,0,1-.452,1.116,1.5,1.5,0,0,1-1.1.453,1.47,1.47,0,0,1-1.092-.453,1.534,1.534,0,0,1-.447-1.116,1.51,1.51,0,0,1,.447-1.11,1.491,1.491,0,0,1,1.1-.447Zm.007.291a1.18,1.18,0,0,0-.881.367,1.329,1.329,0,0,0,0,1.805,1.237,1.237,0,0,0,1.75-.007,1.23,1.23,0,0,0,.354-.894,1.246,1.246,0,0,0-.354-.9,1.172,1.172,0,0,0-.875-.367Z" transform="translate(-49.835 -47.865)" fill="#1d1d1b"/>
    <path id="Path_76" data-name="Path 76" d="M152.115,139.064a1.512,1.512,0,0,1,1.1.446,1.478,1.478,0,0,1,.452,1.105,1.513,1.513,0,0,1-.452,1.116,1.5,1.5,0,0,1-1.1.453,1.47,1.47,0,0,1-1.092-.453,1.534,1.534,0,0,1-.447-1.116,1.51,1.51,0,0,1,.447-1.11,1.491,1.491,0,0,1,1.1-.447Zm.007.291a1.18,1.18,0,0,0-.881.367,1.329,1.329,0,0,0,0,1.805,1.237,1.237,0,0,0,1.75-.007,1.23,1.23,0,0,0,.354-.894,1.246,1.246,0,0,0-.354-.9,1.172,1.172,0,0,0-.875-.367Z" transform="translate(-51.828 -47.865)" fill="#1d1d1b"/>
    <path id="Path_77" data-name="Path 77" d="M159.422,139.116v2.729a1.355,1.355,0,0,1-1.439,1.452,1.919,1.919,0,0,1-.781-.162,1.693,1.693,0,0,1-.6-.421l.192-.211a1.613,1.613,0,0,0,1.179.5,1.051,1.051,0,0,0,1.129-1.141v-.392a1.238,1.238,0,0,1-.5.459,1.525,1.525,0,0,1-.707.168,1.428,1.428,0,0,1-1.061-.441,1.481,1.481,0,0,1-.428-1.079,1.5,1.5,0,0,1,.428-1.085,1.408,1.408,0,0,1,1.055-.447,1.538,1.538,0,0,1,.726.18,1.181,1.181,0,0,1,.5.485v-.6Zm-1.5,2.692a1.279,1.279,0,0,0,.832-2.152,1.168,1.168,0,0,0-.819-.317,1.152,1.152,0,0,0-.862.353,1.309,1.309,0,0,0,0,1.762,1.152,1.152,0,0,0,.862.353Z" transform="translate(-53.837 -47.861)" fill="#1d1d1b"/>
    <path id="Path_78" data-name="Path 78" d="M168.612,137.444V141.6h-.13l-2.712-3.474v3.412h-.323v-4.157h.124l2.718,3.488v-3.425Z" transform="translate(-56.949 -47.288)" fill="#1d1d1b"/>
    <rect id="Rectangle_32" data-name="Rectangle 32" width="0.323" height="4.095" transform="translate(112.879 90.156)" fill="#1d1d1b"/>
    <path id="Path_79" data-name="Path 79" d="M175.858,137.477a1.266,1.266,0,0,1,.906.317,1.059,1.059,0,0,1,.335.807,1.075,1.075,0,0,1-.335.818,1.271,1.271,0,0,1-.912.317h-1.067v1.836h-.323v-4.095h1.4Zm-1.073.3v1.676h1.054a.944.944,0,0,0,.683-.237.884.884,0,0,0,0-1.215.906.906,0,0,0-.675-.236Z" transform="translate(-60.051 -47.321)" fill="#1d1d1b"/>
  </g>
</svg>
